<?xml version="1.0" encoding="utf-8"?>
<!-- Generator: $$$/GeneralStr/196=Adobe Illustrator 27.6.0, SVG Export Plug-In . SVG Version: 6.00 Build 0)  -->
<svg width="40px" height="40px" version="1.1" id="Ebene_1" xmlns="http://www.w3.org/2000/svg" xmlns:xlink="http://www.w3.org/1999/xlink" x="0px" y="0px"
	 viewBox="0 0 30 30" style="enable-background:new 0 0 30 30;" xml:space="preserve">
<style type="text/css">
	.st0{fill:#d7d7d7;}
</style>
<path class="st0" d="M27.5,13.8h-8.8v-2.5h8.8V13.8z M29.6,26.2c-0.5,1.6-2.5,3.8-6.4,3.8s-7-2.1-7-7.1c0-4.9,2.9-7.4,6.9-7.4
	c3.9,0,6.2,2.2,6.8,5.5c0.1,0.6,0.1,1.5,0.1,2.8H20c0.1,4,4.4,4.1,5.8,2.5H29.6z M20,21.2h6.2c-0.1-1.9-1.4-2.8-3.1-2.8
	S20.4,19.4,20,21.2z M8.1,30H0V11.2h8.8c6.9,0.1,7,6.8,3.4,8.6C16.4,21.5,16.5,30,8.1,30z M3.8,18.8h4.5c3.1,0,3.6-3.8-0.4-3.8H3.8
	V18.8z M8,22.5H3.8v3.8h4.1C11.8,26.2,11.5,22.5,8,22.5z"/>
</svg>
