<?xml version="1.0" encoding="utf-8"?>
<!-- Generator: Adobe Illustrator 27.7.0, SVG Export Plug-In . SVG Version: 6.00 Build 0)  -->
<svg version="1.1" id="Ebene_1" xmlns="http://www.w3.org/2000/svg" xmlns:xlink="http://www.w3.org/1999/xlink" x="0px" y="0px"
	 viewBox="0 0 100 100" style="enable-background:new 0 0 100 100;" xml:space="preserve">
<style type="text/css">
	.st0{fill:#A0A0A0;}
</style>
<g>
	<path class="st0" d="M50.39,2C28.21,2,10.15,20.06,10.15,42.25c0,10.49,5.05,24.44,13.28,36.53c8.63,12.62,18.73,20.19,26.96,20.19
		c20.46,0,40.25-35.86,40.25-56.72C90.64,20.06,72.58,2,50.39,2z M50.39,96.31c-7.44,0-16.6-7.17-24.84-18.99
		c-7.97-11.56-12.88-24.97-12.88-35.07c0-20.72,16.87-37.59,37.59-37.59s37.59,16.87,37.59,37.59
		C87.98,63.63,67.79,96.31,50.39,96.31z"/>
	<path class="st0" d="M55.34,84.88c-4.78-1.59-9.7-0.13-9.96,0c-0.66,0.27-1.06,0.93-0.8,1.73c0.27,0.66,0.93,1.06,1.73,0.8
		c0,0,4.25-1.33,8.37,0c0.13,0,0.27,0.13,0.4,0.13c0.53,0,1.06-0.4,1.2-0.93C56.4,85.81,56,85.15,55.34,84.88z"/>
	<g>
		<path class="st0" d="M81.25,37.73c-0.13-0.53-0.53-0.93-1.06-1.06c-0.53-0.13-14.08-2.13-20.99,5.18
			c-6.77,7.31-3.98,20.72-3.85,21.25c0.13,0.53,0.53,0.93,1.06,1.06c0.27,0,2.13,0.27,4.78,0.27c4.65,0,11.82-0.93,16.2-5.58
			C84.31,51.68,81.39,38.26,81.25,37.73z M75.41,57.12c-4.91,5.31-14.61,4.78-17.67,4.52c-0.53-3.05-1.59-12.62,3.45-17.93
			c4.91-5.31,14.61-4.78,17.67-4.52C79.39,42.25,80.46,51.94,75.41,57.12z"/>
		<path class="st0" d="M45.39,63.1c0.13-0.53,2.92-13.95-3.85-21.25s-20.32-5.31-20.99-5.18c-0.53,0.13-0.93,0.53-1.06,1.06
			c-0.13,0.53-2.92,13.95,3.85,21.25c4.38,4.65,11.42,5.58,16.2,5.58c2.66,0,4.52-0.27,4.78-0.27
			C44.86,64.16,45.26,63.63,45.39,63.1z M43,61.64c-3.05,0.27-12.75,0.8-17.67-4.52s-3.85-14.88-3.32-17.93
			c3.05-0.27,12.75-0.8,17.67,4.52C44.46,49.02,43.4,58.72,43,61.64z"/>
	</g>
	<path class="st0" d="M50.39,23.65c4.13,0,7.55,3.05,8.13,7.03c0.45-1.06,0.71-2.23,0.71-3.46c0-4.88-3.95-8.83-8.83-8.83
		s-8.83,3.95-8.83,8.83c0,1.23,0.25,2.4,0.71,3.46C42.84,26.7,46.26,23.65,50.39,23.65z"/>
</g>
</svg>
